<svg xmlns="http://www.w3.org/2000/svg" width="1000" height="1200" viewBox="0 0 1000 1200"><rect width="100%" height="100%" fill="#0d0d0d"/><g fill="none" stroke="#ff7a00" opacity=".7" stroke-width="2"><path d="M500 630 C300 400 290 180 500 200 C710 180 700 400 500 630Z" transform="rotate(0 500 630)"/><path d="M500 630 C300 400 290 180 500 200 C710 180 700 400 500 630Z" transform="rotate(30 500 630)"/><path d="M500 630 C300 400 290 180 500 200 C710 180 700 400 500 630Z" transform="rotate(60 500 630)"/><path d="M500 630 C300 400 290 180 500 200 C710 180 700 400 500 630Z" transform="rotate(90 500 630)"/><path d="M500 630 C300 400 290 180 500 200 C710 180 700 400 500 630Z" transform="rotate(120 500 630)"/><path d="M500 630 C300 400 290 180 500 200 C710 180 700 400 500 630Z" transform="rotate(150 500 630)"/><path d="M500 630 C300 400 290 180 500 200 C710 180 700 400 500 630Z" transform="rotate(180 500 630)"/><path d="M500 630 C300 400 290 180 500 200 C710 180 700 400 500 630Z" transform="rotate(210 500 630)"/><path d="M500 630 C300 400 290 180 500 200 C710 180 700 400 500 630Z" transform="rotate(240 500 630)"/><path d="M500 630 C300 400 290 180 500 200 C710 180 700 400 500 630Z" transform="rotate(270 500 630)"/><path d="M500 630 C300 400 290 180 500 200 C710 180 700 400 500 630Z" transform="rotate(300 500 630)"/><path d="M500 630 C300 400 290 180 500 200 C710 180 700 400 500 630Z" transform="rotate(330 500 630)"/><circle cx="500" cy="630" r="92"/><circle cx="500" cy="630" r="440" stroke-dasharray="8 10"/><path d="M40 630H960 M500 100V1150" opacity=".35"/></g><text x="55" y="85" fill="#ff7a00" font-family="monospace" font-size="19">STUDY 003 / PETAL RHYTHM</text></svg>